<?xml version="1.0" standalone="no"?>
<!DOCTYPE svg PUBLIC "-//W3C//DTD SVG 20010904//EN"
 "http://www.w3.org/TR/2001/REC-SVG-20010904/DTD/svg10.dtd">
<svg version="1.0" xmlns="http://www.w3.org/2000/svg"
 width="512.000000pt" height="512.000000pt" viewBox="0 0 512.000000 512.000000"
 preserveAspectRatio="xMidYMid meet">

<g transform="translate(0.000000,512.000000) scale(0.100000,-0.100000)"
fill="#000000" stroke="none">
<path d="M1251 5109 c-62 -12 -157 -59 -216 -107 -55 -44 -109 -126 -136 -205
-17 -50 -19 -51 -81 -71 -132 -44 -226 -124 -286 -245 l-37 -75 -3 -2015 c-2
-2216 -7 -2051 56 -2160 63 -108 199 -200 328 -221 83 -14 2913 -13 2985 0
167 32 306 153 360 313 17 50 19 51 81 71 132 44 226 124 286 245 l37 75 3
1680 2 1679 -158 161 c-87 89 -313 319 -501 511 -189 193 -353 355 -364 362
-17 9 -286 12 -1167 12 -630 -1 -1165 -5 -1189 -10z m2251 -556 l3 -398 25
-48 c29 -57 76 -102 139 -131 44 -20 64 -21 424 -24 l377 -3 0 -1578 c0 -1371
-2 -1584 -15 -1628 -19 -63 -81 -135 -149 -171 l-51 -27 -1500 0 -1500 0 -43
23 c-66 35 -117 87 -143 145 l-24 52 -3 1965 c-3 2239 -11 2033 86 2130 96 96
-8 88 1259 89 l1112 1 3 -397z m551 -431 c-246 -2 -300 0 -326 13 -62 29 -62
29 -65 375 l-2 315 344 -350 343 -350 -294 -3z m-3173 -1456 c0 -1837 1 -1906
19 -1965 46 -147 152 -253 310 -309 42 -15 180 -17 1454 -19 l1407 -3 -20 -41
c-30 -59 -94 -115 -156 -139 -54 -20 -69 -20 -1529 -20 -1462 0 -1475 0 -1529
21 -72 27 -149 108 -171 181 -13 45 -15 285 -15 2003 0 2177 -6 2012 71 2099
38 43 117 94 147 96 9 0 12 -387 12 -1904z"/>
<path d="M2030 4501 c-135 -44 -261 -146 -313 -254 -48 -100 -59 -178 -55
-392 4 -169 7 -197 28 -250 29 -77 76 -149 129 -200 34 -32 41 -46 41 -76 l0
-37 -102 -4 c-86 -2 -112 -7 -159 -30 -75 -34 -134 -95 -171 -174 -27 -58 -31
-78 -35 -187 -7 -152 5 -190 64 -207 27 -8 240 -10 721 -8 l684 3 25 29 c24
28 24 32 21 170 -3 131 -5 146 -32 203 -33 73 -97 138 -171 173 -40 20 -70 25
-152 28 l-103 4 0 45 c0 40 6 51 48 97 54 60 95 138 111 214 6 29 11 138 11
242 l0 190 25 0 c14 0 38 12 52 26 23 24 25 31 20 86 -11 123 -88 230 -207
287 -53 25 -62 26 -255 28 -110 1 -211 -2 -225 -6z m419 -175 c35 -19 81 -63
81 -77 0 -5 -100 -9 -223 -9 -185 0 -226 3 -245 16 -28 20 -28 58 1 79 33 24
336 17 386 -9z m-535 -158 l25 -37 -43 -20 c-48 -24 -56 -25 -56 -10 0 13 42
111 46 107 1 -2 14 -20 28 -40z m544 -280 c-6 -226 -15 -261 -88 -341 -71 -78
-125 -102 -230 -102 -76 0 -91 3 -139 30 -68 37 -125 102 -151 171 -16 43 -20
79 -20 163 l0 108 64 17 c66 18 163 75 205 120 24 26 25 26 194 26 l169 0 -4
-192z m-313 -613 c28 0 69 3 93 8 36 6 42 5 42 -10 0 -18 -109 -94 -133 -92
-22 1 -122 74 -125 91 -3 14 2 16 35 10 21 -4 61 -7 88 -7z m-158 -192 l73
-48 0 -92 0 -93 -250 0 -250 0 0 65 c0 76 16 119 58 158 44 42 95 56 201 57
l95 0 73 -47z m674 12 c55 -39 79 -87 86 -174 l6 -71 -262 0 -262 0 3 91 3 92
75 48 75 48 117 -2 c111 -2 118 -3 159 -32z"/>
<path d="M1432 2343 c-21 -8 -44 -63 -38 -89 4 -13 16 -33 28 -44 21 -20 32
-20 729 -20 699 0 707 0 733 21 35 27 36 86 3 117 l-23 22 -710 -1 c-390 0
-715 -3 -722 -6z"/>
<path d="M1433 1938 c-33 -16 -48 -61 -33 -98 7 -17 21 -35 31 -40 11 -6 472
-10 1226 -10 1327 0 1244 -4 1258 59 7 32 -7 68 -34 88 -21 16 -2414 17 -2448
1z"/>
<path d="M1440 1537 c-52 -26 -61 -95 -18 -134 19 -17 73 -18 1235 -18 l1215
0 24 28 c30 36 30 68 0 104 l-24 28 -1204 2 c-957 2 -1208 0 -1228 -10z"/>
<path d="M1442 1135 c-57 -25 -65 -96 -15 -135 25 -20 44 -20 1230 -20 l1205
0 29 29 c36 36 37 70 5 108 l-24 28 -1199 2 c-1018 2 -1203 0 -1231 -12z"/>
</g>
</svg>
